<?xml version="1.0" encoding="iso-8859-1"?>
<!-- Generator: Adobe Illustrator 19.0.0, SVG Export Plug-In . SVG Version: 6.00 Build 0)  -->
<svg fill='white' version="1.1" id="Layer_1" xmlns="http://www.w3.org/2000/svg" xmlns:xlink="http://www.w3.org/1999/xlink" x="0px" y="0px"
	 viewBox="0 0 512 512" style="enable-background:new 0 0 512 512;" xml:space="preserve">
<g>
	<g>
		<path d="M511.994,150.156c-0.003-0.489-0.028-0.976-0.073-1.463c-0.011-0.12-0.027-0.239-0.041-0.359
			c-0.047-0.409-0.108-0.815-0.186-1.22c-0.018-0.095-0.031-0.191-0.051-0.286c-0.091-0.433-0.205-0.861-0.331-1.288
			c-0.049-0.167-0.101-0.333-0.156-0.497c-0.115-0.348-0.242-0.695-0.38-1.037c-0.069-0.169-0.14-0.336-0.215-0.503
			c-0.105-0.237-0.209-0.475-0.326-0.708l-31.627-63.257V27.826C478.609,12.483,466.126,0,450.783,0H61.217
			C45.874,0,33.391,12.483,33.391,27.826v51.711L1.762,142.795c-0.12,0.242-0.228,0.486-0.336,0.731
			c-0.067,0.151-0.132,0.303-0.195,0.456c-0.144,0.353-0.273,0.708-0.391,1.067c-0.053,0.161-0.104,0.323-0.151,0.486
			c-0.127,0.429-0.242,0.859-0.333,1.294c-0.019,0.092-0.032,0.187-0.05,0.279c-0.078,0.406-0.139,0.816-0.187,1.225
			c-0.013,0.119-0.029,0.238-0.04,0.358c-0.046,0.486-0.07,0.974-0.073,1.461c0,0.034-0.006,0.07-0.006,0.106v66.783
			c0,18.969,8.673,35.949,22.261,47.188v231.073c0,9.22,7.475,16.696,16.696,16.696h267.13h100.174h66.783
			c9.22,0,16.696-7.475,16.696-16.696V264.231C503.327,252.994,512,236.013,512,217.043v-66.783
			C512,150.225,511.994,150.192,511.994,150.156z M66.783,33.391h378.435v33.391H66.783V33.391z M60.406,100.174h391.189
			l16.696,33.391H43.71L60.406,100.174z M389.565,478.609h-66.783V333.913h66.783V478.609z M456.349,478.609h-0.001h-33.391V317.217
			c0-9.22-7.475-16.696-16.696-16.696H306.087c-9.22,0-16.696,7.475-16.696,16.696v161.391H55.652V277.996
			c0.899,0.081,1.802,0.15,2.711,0.191c0.951,0.048,1.902,0.073,2.854,0.073c1.148,0,2.288-0.032,3.42-0.095
			c0.582-0.032,1.155-0.096,1.732-0.144c0.547-0.046,1.096-0.076,1.638-0.136c0.995-0.11,1.981-0.254,2.962-0.411
			c0.117-0.019,0.236-0.03,0.353-0.049c1.062-0.177,2.113-0.384,3.156-0.615c0.033-0.008,0.068-0.012,0.102-0.02
			c7.485-1.673,14.455-4.723,20.635-8.865c0.038-0.024,0.077-0.047,0.114-0.072c0.779-0.524,1.539-1.073,2.292-1.632
			c0.106-0.078,0.216-0.15,0.321-0.228c0.683-0.514,1.347-1.052,2.008-1.593c0.166-0.136,0.338-0.262,0.502-0.398
			c0.578-0.483,1.135-0.99,1.694-1.494c0.234-0.21,0.477-0.411,0.708-0.626c0.487-0.453,0.954-0.926,1.426-1.395
			c0.286-0.284,0.582-0.557,0.863-0.845c0.406-0.42,0.792-0.858,1.188-1.288c0.321-0.349,0.652-0.689,0.965-1.046
			c11.422,12.09,27.301,19.928,44.978,20.859c1.178,0.062,2.362,0.094,3.555,0.094c19.925,0,37.84-8.772,50.087-22.655
			c12.246,13.881,30.161,22.653,50.086,22.653c19.925,0,37.84-8.772,50.087-22.655c12.247,13.883,30.162,22.655,50.087,22.655
			c1.192,0,2.377-0.031,3.555-0.094c17.677-0.932,33.556-8.77,44.978-20.859c0.239,0.274,0.494,0.532,0.739,0.801
			c0.468,0.516,0.931,1.036,1.416,1.536c0.247,0.255,0.51,0.495,0.761,0.746c0.504,0.502,1.004,1.007,1.524,1.491
			c0.247,0.229,0.508,0.444,0.759,0.67c0.542,0.488,1.082,0.978,1.642,1.447c0.228,0.191,0.469,0.367,0.699,0.555
			c0.598,0.485,1.194,0.973,1.81,1.436c0.201,0.151,0.412,0.289,0.614,0.439c0.659,0.483,1.319,0.965,1.998,1.422
			c0.168,0.114,0.344,0.216,0.513,0.327c0.725,0.477,1.451,0.951,2.196,1.397c0.138,0.082,0.282,0.156,0.42,0.237
			c0.786,0.463,1.576,0.918,2.383,1.346c0.108,0.058,0.22,0.107,0.328,0.164c0.845,0.442,1.696,0.872,2.562,1.274
			c0.109,0.051,0.223,0.094,0.333,0.145c0.87,0.398,1.749,0.785,2.641,1.143c0.125,0.05,0.255,0.091,0.38,0.141
			c0.883,0.347,1.772,0.683,2.675,0.991c0.075,0.026,0.15,0.044,0.225,0.07c0.957,0.322,1.922,0.626,2.9,0.9
			c0.175,0.049,0.355,0.087,0.531,0.134c0.882,0.239,1.766,0.471,2.664,0.671c0.217,0.049,0.439,0.082,0.657,0.128
			c0.863,0.183,1.726,0.362,2.602,0.508c0.287,0.048,0.58,0.077,0.868,0.12c0.813,0.124,1.624,0.248,2.446,0.339
			c0.629,0.07,1.266,0.108,1.9,0.158c0.491,0.039,0.977,0.095,1.471,0.122c1.132,0.062,2.273,0.095,3.42,0.095
			c0.952,0,1.903-0.026,2.854-0.072c0.909-0.042,1.812-0.11,2.711-0.191V478.609z M478.609,217.043
			c0,9.593-4.88,18.067-12.287,23.072c-0.57,0.25-1.132,0.528-1.677,0.845c-3.887,2.263-7.933,3.551-12.051,3.843
			c-0.02,0.001-0.041,0.003-0.061,0.004c-0.582,0.04-1.165,0.061-1.75,0.061c-15.343,0-27.826-12.483-27.826-27.826v-3.009v-2.557
			c0-9.22-7.475-16.696-16.696-16.696c-9.092,0-16.473,7.273-16.677,16.317c-0.121,0.682-0.217,1.375-0.253,2.084
			c-0.794,15.538-12.032,28.132-26.669,31.048c-0.069,0.013-0.139,0.023-0.208,0.037c-0.45,0.087-0.902,0.167-1.357,0.235
			c-0.164,0.025-0.328,0.041-0.493,0.062c-0.371,0.05-0.74,0.1-1.113,0.137c-0.275,0.028-0.554,0.042-0.831,0.063
			c-0.271,0.02-0.539,0.047-0.81,0.06c-0.555,0.029-1.114,0.043-1.676,0.043c-0.562,0-1.121-0.014-1.676-0.042
			c-0.272-0.013-0.54-0.04-0.81-0.06c-0.277-0.02-0.557-0.036-0.831-0.063c-0.374-0.037-0.743-0.088-1.113-0.137
			c-0.164-0.022-0.329-0.039-0.493-0.062c-0.455-0.068-0.907-0.149-1.357-0.235c-0.069-0.013-0.139-0.023-0.208-0.037
			c-14.637-2.916-25.875-15.509-26.669-31.048c-0.037-0.709-0.131-1.401-0.253-2.084c-0.204-9.046-7.584-16.318-16.677-16.318
			s-16.473,7.273-16.677,16.317c-0.121,0.682-0.217,1.375-0.253,2.084c-0.794,15.538-12.032,28.132-26.669,31.048
			c-0.069,0.013-0.139,0.023-0.208,0.037c-0.45,0.087-0.902,0.167-1.357,0.235c-0.164,0.025-0.328,0.041-0.493,0.062
			c-0.37,0.05-0.74,0.1-1.113,0.137c-0.275,0.028-0.554,0.042-0.831,0.063c-0.27,0.02-0.539,0.047-0.81,0.06
			c-0.555,0.029-1.114,0.043-1.676,0.043c-0.562,0-1.121-0.014-1.676-0.042c-0.272-0.013-0.54-0.04-0.81-0.06
			c-0.277-0.02-0.557-0.036-0.831-0.063c-0.374-0.037-0.743-0.088-1.113-0.137c-0.164-0.022-0.329-0.039-0.493-0.062
			c-0.455-0.068-0.907-0.149-1.357-0.235c-0.069-0.013-0.139-0.023-0.208-0.037c-14.637-2.916-25.875-15.509-26.669-31.048
			c-0.037-0.709-0.131-1.401-0.253-2.084c-0.204-9.046-7.584-16.318-16.677-16.318c-9.092,0-16.473,7.273-16.677,16.317
			c-0.121,0.682-0.217,1.375-0.253,2.084c-0.794,15.538-12.032,28.132-26.669,31.048c-0.069,0.013-0.139,0.023-0.208,0.037
			c-0.45,0.087-0.902,0.167-1.357,0.235c-0.164,0.025-0.328,0.041-0.493,0.062c-0.37,0.05-0.74,0.1-1.113,0.137
			c-0.275,0.028-0.554,0.042-0.831,0.063c-0.27,0.02-0.539,0.047-0.81,0.06c-0.555,0.029-1.114,0.043-1.676,0.043
			c-0.562,0-1.121-0.014-1.676-0.042c-0.272-0.013-0.54-0.04-0.81-0.06c-0.277-0.02-0.557-0.036-0.831-0.063
			c-0.374-0.037-0.744-0.088-1.113-0.137c-0.164-0.022-0.329-0.039-0.493-0.062c-0.455-0.068-0.907-0.149-1.357-0.235
			c-0.069-0.013-0.139-0.023-0.208-0.037c-14.637-2.916-25.875-15.509-26.669-31.048c-0.037-0.709-0.131-1.401-0.253-2.084
			c-0.204-9.046-7.584-16.318-16.677-16.318c-9.22,0-16.696,7.475-16.696,16.696v2.557v3.009c0,15.343-12.483,27.826-27.826,27.826
			c-0.584,0-1.168-0.021-1.75-0.06c-0.02-0.001-0.041-0.003-0.061-0.004c-4.118-0.293-8.163-1.581-12.051-3.843
			c-0.547-0.318-1.109-0.595-1.678-0.846c-7.407-5.006-12.286-13.48-12.286-23.072v-50.087h445.217V217.043z"/>
	</g>
</g>
<g>
	<g>
		<path d="M239.304,300.522H105.739c-9.22,0-16.696,7.475-16.696,16.696v111.304c0,9.22,7.475,16.696,16.696,16.696h133.565
			c9.22,0,16.696-7.475,16.696-16.696V317.217C256,307.997,248.525,300.522,239.304,300.522z M222.609,411.826H122.435v-77.913
			h100.174V411.826z"/>
	</g>
</g>
<g>
</g>
<g>
</g>
<g>
</g>
<g>
</g>
<g>
</g>
<g>
</g>
<g>
</g>
<g>
</g>
<g>
</g>
<g>
</g>
<g>
</g>
<g>
</g>
<g>
</g>
<g>
</g>
<g>
</g>
</svg>
